<?xml version="1.0" standalone="no"?>
<!DOCTYPE svg PUBLIC "-//W3C//DTD SVG 20010904//EN"
 "http://www.w3.org/TR/2001/REC-SVG-20010904/DTD/svg10.dtd">
<svg version="1.0" xmlns="http://www.w3.org/2000/svg"
 width="288.000000pt" height="288.000000pt" viewBox="0 0 288.000000 288.000000"
 preserveAspectRatio="xMidYMid meet">
<metadata>
Created by potrace 1.11, written by Peter Selinger 2001-2013
</metadata>
<g transform="translate(0.000000,288.000000) scale(0.100000,-0.100000)"
fill="#000000" stroke="none">
<path d="M0 1440 l0 -1440 1440 0 1440 0 0 1440 0 1440 -1440 0 -1440 0 0
-1440z m1278 677 c19 -39 0 -92 -39 -112 -16 -9 -107 -29 -202 -45 -206 -36
-272 -52 -350 -87 -104 -47 -145 -125 -97 -185 27 -35 142 -89 280 -133 63
-20 165 -53 225 -72 220 -69 346 -148 360 -225 11 -59 -18 -129 -82 -198 -102
-111 -267 -201 -519 -285 -129 -44 -137 -45 -160 -30 -34 22 -48 62 -34 96 10
22 33 35 143 79 326 130 493 235 472 300 -10 31 -61 53 -296 126 -241 75 -358
122 -441 178 -102 67 -138 126 -138 223 1 76 25 126 89 186 92 86 247 142 511
186 69 11 136 22 150 24 14 3 45 4 70 3 39 -1 47 -5 58 -29z m1177 -8 c14 -18
24 -38 21 -46 -4 -8 -6 -19 -6 -24 0 -24 -65 -43 -252 -74 -111 -19 -207 -35
-212 -35 -9 0 -3 -476 11 -900 l6 -195 -25 -30 c-32 -37 -96 -42 -128 -9 -20
20 -21 34 -26 460 -2 241 -7 486 -10 543 l-6 103 -42 -7 c-208 -34 -309 -44
-327 -34 -31 16 -41 54 -25 94 17 41 31 45 246 80 87 15 159 31 165 39 28 36
87 46 134 21 26 -13 45 -11 202 14 232 39 241 39 274 0z"/>
</g>
</svg>
